<svg xmlns="http://www.w3.org/2000/svg" xml:space="preserve" viewBox="0 0 512 512" id="budget">
  <linearGradient id="a" x1="24.364" x2="476.701" y1="511.201" y2="58.865" gradientUnits="userSpaceOnUse">
    <stop offset="0" stop-color="#fcc60e"></stop>
    <stop offset="1" stop-color="#e92e29"></stop>
  </linearGradient>
  <path fill="url(#a)" d="M289.63 146.91H144.583a8 8 0 0 1 0-16H289.63a8 8 0 0 1 0 16zm-42.518 121.716c0 8.836-7.189 16.024-16.025 16.024H54.543c-8.836 0-16.025-7.188-16.025-16.024v-31.498c0-8.836 7.189-16.024 16.025-16.024h176.543c8.836 0 16.025 7.188 16.025 16.024v31.498zm-16-31.498-176.568-.024h-.006l-.019 31.522 176.568.024.025-31.522zm-123.179 85.765v10.432c0 8.836-7.188 16.024-16.024 16.024H61.916c-8.836 0-16.025-7.188-16.025-16.024v-10.432c0-8.836 7.189-16.025 16.025-16.025h29.993c8.836 0 16.024 7.189 16.024 16.025zm-16 0-30.017-.025h-.006l-.019 10.457 30.018.024.024-10.456zm81.903 0v10.432c0 8.836-7.188 16.024-16.024 16.024h-29.993c-8.835 0-16.024-7.188-16.024-16.024v-10.432c0-8.836 7.188-16.025 16.024-16.025h29.993c8.835 0 16.024 7.189 16.024 16.025zm-16 0-30.018-.025h-.006l-.018 10.457 30.017.024.025-10.456zm81.903 0v10.432c0 8.836-7.188 16.024-16.024 16.024h-29.993c-8.836 0-16.025-7.188-16.025-16.024v-10.432c0-8.836 7.189-16.025 16.025-16.025h29.993c8.835 0 16.024 7.189 16.024 16.025zm-16 0-30.017-.025h-.006l-.019 10.457 30.018.024.024-10.456zm-115.806 56.273v10.433c0 8.836-7.188 16.024-16.024 16.024H61.916c-8.836 0-16.025-7.188-16.025-16.024v-10.433c0-8.836 7.189-16.025 16.025-16.025h29.993c8.836 0 16.024 7.189 16.024 16.025zm-16 0-30.017-.025h-.006l-.019 10.458 30.018.024.024-10.457zm81.903 0v10.433c0 8.836-7.188 16.024-16.024 16.024h-29.993c-8.835 0-16.024-7.188-16.024-16.024v-10.433c0-8.836 7.188-16.025 16.024-16.025h29.993c8.835 0 16.024 7.189 16.024 16.025zm-16 0-30.018-.025h-.006l-.018 10.458 30.017.024.025-10.457zm81.903 0v10.433c0 8.836-7.188 16.024-16.024 16.024h-29.993c-8.836 0-16.025-7.188-16.025-16.024v-10.433c0-8.836 7.189-16.025 16.025-16.025h29.993c8.835 0 16.024 7.189 16.024 16.025zm-16 0-30.017-.025h-.006l-.019 10.458 30.018.024.024-10.457zm-115.806 56.273v10.432c0 8.836-7.188 16.025-16.024 16.025H61.916c-8.836 0-16.025-7.189-16.025-16.025v-10.432c0-8.836 7.189-16.025 16.025-16.025h29.993c8.836.001 16.024 7.19 16.024 16.025zm-16 0-30.017-.025h-.006l-.019 10.457 30.018.025.024-10.457zm81.903 0v10.432c0 8.836-7.188 16.025-16.024 16.025h-29.993c-8.835 0-16.024-7.189-16.024-16.025v-10.432c0-8.836 7.188-16.025 16.024-16.025h29.993c8.835.001 16.024 7.19 16.024 16.025zm-16 0-30.018-.025h-.006l-.018 10.457 30.017.025.025-10.457zm81.903 0v10.432c0 8.836-7.188 16.025-16.024 16.025h-29.993c-8.836 0-16.025-7.189-16.025-16.025v-10.432c0-8.836 7.189-16.025 16.025-16.025h29.993c8.835.001 16.024 7.19 16.024 16.025zm-16 0-30.017-.025h-.006l-.019 10.457 30.018.025.024-10.457zM512 379c0 73.336-59.664 133-133 133H42.908C19.249 512 0 492.752 0 469.093V213.907C0 190.248 19.249 171 42.908 171h24.008V61.526a8 8 0 0 1 8-8h45.527V8a8 8 0 0 1 8-8h286.079a8 8 0 0 1 5.657 2.343l55.312 55.312a8 8 0 0 1 2.343 5.657v226.79C499.061 313.677 512 344.854 512 379zM422.522 55.312h27.998l-27.998-27.998v27.998zm-286.079-1.786h224.552a8 8 0 0 1 5.657 2.343l55.312 55.312a8 8 0 0 1 2.343 5.657v137.113a132.984 132.984 0 0 1 37.527 21.074V71.312h-47.312a8 8 0 0 1-8-8V16H136.443v37.526zm232.552 55.312h27.998L368.995 80.84v27.998zM82.916 171h159.807c15.009 0 28.234 7.752 35.904 19.457h68.013a8 8 0 0 1 0 16h-61.672c.426 2.422.661 4.909.661 7.451v36.096h60.954A132.791 132.791 0 0 1 379 246c10.067 0 19.874 1.131 29.307 3.261V124.838h-47.312a8 8 0 0 1-8-8V69.526H82.916V171zm202.713 113.384a133.96 133.96 0 0 1 23.304-18.381h-23.304v18.381zM242.723 496c14.836 0 26.907-12.07 26.907-26.907v-14.51C254.74 433.105 246 407.056 246 379c0-28.056 8.74-54.105 23.629-75.583v-89.51c0-4.132-.938-8.048-2.609-11.549a8.107 8.107 0 0 1-.281-.559C262.3 193.029 253.205 187 242.723 187H42.908C28.071 187 16 199.07 16 213.907v255.186C16 483.93 28.071 496 42.908 496h199.815zm73.078 0a133.786 133.786 0 0 1-30.388-22.595c-.853 8.506-4.205 16.282-9.302 22.595h39.69zM496 379c0-64.514-52.486-117-117-117s-117 52.486-117 117c0 64.514 52.486 117 117 117s117-52.486 117-117zm-115.616-8.238c-20.284-3.331-20.681-11.519-20.83-14.602-.435-8.94 6.937-13.833 13.98-15.43 9.542-2.167 21.342.821 26.192 12.371a7.998 7.998 0 0 0 10.473 4.279 8 8 0 0 0 4.279-10.473c-5.525-13.159-16.315-19.958-27.478-22.063v-6.245a8 8 0 0 0-16 0v6.314c-.337.067-.672.139-1.005.214-16.546 3.752-27.164 16.536-26.422 31.81.535 11.034 6.906 25.129 34.219 29.614 19.721 3.238 23.036 10.122 23.72 15.757.417 3.435-.334 6.127-2.364 8.474-3.576 4.135-11.07 6.93-19.092 7.121-9.237.208-21.037-3.618-23.915-15.162a8 8 0 0 0-15.524 3.87c3.491 14.004 15.202 23.956 30.383 26.601v6.189a8 8 0 0 0 16 0v-6.064c10.035-1.492 18.817-5.808 24.25-12.089 4.979-5.756 7.104-12.973 6.146-20.869-2.918-24.02-28.58-28.233-37.012-29.617zM482.45 379c0 57.043-46.408 103.451-103.45 103.451S275.55 436.043 275.55 379c0-57.042 46.408-103.45 103.45-103.45S482.45 321.958 482.45 379zm-16 0c0-48.22-39.23-87.45-87.45-87.45s-87.45 39.23-87.45 87.45c0 48.221 39.23 87.451 87.45 87.451s87.45-39.23 87.45-87.451z"></path>
</svg>
